<svg width="512" height="512" viewBox="0 0 512 512" fill="none" xmlns="http://www.w3.org/2000/svg">
<rect width="512" height="512" rx="50" fill="#204D66"/>
<path d="M228.833 461H118.283V275.65H227.733V303.975H153.208V354.3H219.483V382.35H153.208V432.675H228.833V461ZM294.921 461H260.271L275.121 275.65H314.721L340.021 343.025C344.421 354.392 348.546 365.758 352.396 377.125C356.246 388.308 358.996 396.65 360.646 402.15L363.121 410.675C368.805 391.608 376.688 369.058 386.771 343.025L412.621 275.65H452.221L470.371 461H435.721L429.121 388.675L424.171 323.775C417.571 342.658 409.688 364.292 400.521 388.675L374.671 458.25H351.021L325.721 388.675L303.996 324.6C303.996 333.583 302.805 354.942 300.421 388.675L294.921 461Z" fill="white"/>
</svg>
