<svg width="5046" height="512" viewBox="0 0 5046 512" fill="none" xmlns="http://www.w3.org/2000/svg">
<g clip-path="url(#clip0_121_255)">
<rect width="4828" height="512" rx="50" fill="white"/>
<path d="M966 421H765V84H964V135.5H828.5V227H949V278H828.5V369.5H966V421ZM1386.16 421H1325.66V265.5C1325.66 231.5 1312.66 214.5 1286.66 214.5C1273.66 214.5 1261.99 220.167 1251.66 231.5C1241.66 242.833 1236.66 260.667 1236.66 285V421H1176.16V265.5C1176.16 231.5 1163.16 214.5 1137.16 214.5C1124.16 214.5 1112.49 220.167 1102.16 231.5C1091.83 242.833 1086.66 260.667 1086.66 285V421H1026.66V167.5H1086.66V207.5C1100.99 178.833 1124.83 164.5 1158.16 164.5C1195.16 164.5 1219.16 180.5 1230.16 212.5C1236.83 197.167 1246.83 185.333 1260.16 177C1273.49 168.667 1288.66 164.5 1305.66 164.5C1331.33 164.5 1351.16 172.333 1365.16 188C1379.16 203.333 1386.16 225.333 1386.16 254V421ZM1807.55 421H1747.05V265.5C1747.05 231.5 1734.05 214.5 1708.05 214.5C1695.05 214.5 1683.38 220.167 1673.05 231.5C1663.05 242.833 1658.05 260.667 1658.05 285V421H1597.55V265.5C1597.55 231.5 1584.55 214.5 1558.55 214.5C1545.55 214.5 1533.88 220.167 1523.55 231.5C1513.21 242.833 1508.05 260.667 1508.05 285V421H1448.05V167.5H1508.05V207.5C1522.38 178.833 1546.21 164.5 1579.55 164.5C1616.55 164.5 1640.55 180.5 1651.55 212.5C1658.21 197.167 1668.21 185.333 1681.55 177C1694.88 168.667 1710.05 164.5 1727.05 164.5C1752.71 164.5 1772.55 172.333 1786.55 188C1800.55 203.333 1807.55 225.333 1807.55 254V421ZM1956.43 378.5C1969.77 378.5 1980.1 374.667 1987.43 367C1995.1 359 1998.93 348.667 1998.93 336V312H1967.93C1952.27 312 1940.27 315.333 1931.93 322C1923.6 328.333 1919.43 336.5 1919.43 346.5C1919.43 367.833 1931.77 378.5 1956.43 378.5ZM2001.43 390.5C1989.77 412.167 1967.77 423 1935.43 423C1911.43 423 1892.27 416 1877.93 402C1863.93 388 1856.93 370.333 1856.93 349C1856.93 325 1865.93 306.167 1883.93 292.5C1901.93 278.833 1927.93 272 1961.93 272H1998.93V256.5C1998.93 242.5 1995.27 231.833 1987.93 224.5C1980.6 217.167 1968.1 213.5 1950.43 213.5C1923.43 213.5 1898.6 221 1875.93 236V180.5C1894.93 168.833 1922.27 163 1957.93 163C2026.6 163 2060.93 195 2060.93 259V421H2001.43V390.5ZM2342.85 421H2282.85V265C2282.85 248.333 2278.85 235.833 2270.85 227.5C2262.85 218.833 2252.02 214.5 2238.35 214.5C2222.68 214.5 2209.52 220.667 2198.85 233C2188.18 245 2182.85 262.333 2182.85 285V421H2122.85V167.5H2182.85V211C2197.18 180 2223.18 164.5 2260.85 164.5C2286.18 164.5 2306.18 172.167 2320.85 187.5C2335.52 202.833 2342.85 224.5 2342.85 252.5V421ZM2623.07 421H2562.57V379.5C2549.23 408.833 2523.23 423.5 2484.57 423.5C2458.9 423.5 2438.9 416.167 2424.57 401.5C2410.23 386.833 2403.07 366 2403.07 339V167.5H2463.07V325C2463.07 341 2466.9 353.167 2474.57 361.5C2482.57 369.833 2493.4 374 2507.07 374C2524.4 374 2537.9 368.167 2547.57 356.5C2557.57 344.833 2562.57 327.167 2562.57 303.5V167.5H2623.07V421ZM2881.78 407C2864.11 418 2838.61 423.5 2805.28 423.5C2764.95 423.5 2733.11 411.5 2709.78 387.5C2686.45 363.5 2674.78 332.5 2674.78 294.5C2674.78 254.167 2685.78 222.5 2707.78 199.5C2729.78 176.5 2757.28 165 2790.28 165C2823.28 165 2849.45 175 2868.78 195C2888.11 215 2897.78 244.167 2897.78 282.5C2897.78 291.833 2896.61 303.833 2894.28 318.5H2735.28C2739.61 336.833 2748.61 350.833 2762.28 360.5C2776.28 370.167 2793.61 375 2814.28 375C2840.95 375 2863.45 368.333 2881.78 355V407ZM2791.78 212C2777.45 212 2764.95 217.333 2754.28 228C2743.95 238.333 2737.28 253.5 2734.28 273.5H2840.78V266C2840.11 249.667 2835.61 236.667 2827.28 227C2819.28 217 2807.45 212 2791.78 212ZM3015.43 421H2955.43V67.5H3015.43V421ZM3142.31 421H3079.31L3106.31 84H3178.31L3224.31 206.5C3232.31 227.167 3239.81 247.833 3246.81 268.5C3253.81 288.833 3258.81 304 3261.81 314L3266.31 329.5C3276.65 294.833 3290.98 253.833 3309.31 206.5L3356.31 84H3428.31L3461.31 421H3398.31L3386.31 289.5L3377.31 171.5C3365.31 205.833 3350.98 245.167 3334.31 289.5L3287.31 416H3244.31L3198.31 289.5L3158.81 173C3158.81 189.333 3156.65 228.167 3152.31 289.5L3142.31 421ZM3716.25 407C3698.59 418 3673.09 423.5 3639.75 423.5C3599.42 423.5 3567.59 411.5 3544.25 387.5C3520.92 363.5 3509.25 332.5 3509.25 294.5C3509.25 254.167 3520.25 222.5 3542.25 199.5C3564.25 176.5 3591.75 165 3624.75 165C3657.75 165 3683.92 175 3703.25 195C3722.59 215 3732.25 244.167 3732.25 282.5C3732.25 291.833 3731.09 303.833 3728.75 318.5H3569.75C3574.09 336.833 3583.09 350.833 3596.75 360.5C3610.75 370.167 3628.09 375 3648.75 375C3675.42 375 3697.92 368.333 3716.25 355V407ZM3626.25 212C3611.92 212 3599.42 217.333 3588.75 228C3578.42 238.333 3571.75 253.5 3568.75 273.5H3675.25V266C3674.59 249.667 3670.09 236.667 3661.75 227C3653.75 217 3641.92 212 3626.25 212ZM4007.4 421H3947.4V265C3947.4 248.333 3943.4 235.833 3935.4 227.5C3927.4 218.833 3916.57 214.5 3902.9 214.5C3887.24 214.5 3874.07 220.667 3863.4 233C3852.74 245 3847.4 262.333 3847.4 285V421H3787.4V167.5H3847.4V211C3861.74 180 3887.74 164.5 3925.4 164.5C3950.74 164.5 3970.74 172.167 3985.4 187.5C4000.07 202.833 4007.4 224.5 4007.4 252.5V421ZM4118.12 295.5C4118.12 318.5 4123.95 337.167 4135.62 351.5C4147.28 365.833 4161.78 373 4179.12 373C4197.12 373 4212.12 366.167 4224.12 352.5C4236.12 338.5 4242.12 318.333 4242.12 292C4242.12 266.333 4235.78 247.167 4223.12 234.5C4210.45 221.5 4195.95 215 4179.62 215C4162.28 215 4147.62 222.167 4135.62 236.5C4123.95 250.5 4118.12 270.167 4118.12 295.5ZM4302.12 421H4242.12V381.5C4224.78 410.167 4199.12 424.5 4165.12 424.5C4131.78 424.5 4105.28 411.833 4085.62 386.5C4066.28 361.167 4056.62 330.5 4056.62 294.5C4056.62 254.5 4066.78 222.833 4087.12 199.5C4107.78 175.833 4134.12 164 4166.12 164C4199.12 164 4224.45 178.167 4242.12 206.5V67.5H4302.12V421ZM4560.49 407C4542.83 418 4517.33 423.5 4483.99 423.5C4443.66 423.5 4411.83 411.5 4388.49 387.5C4365.16 363.5 4353.49 332.5 4353.49 294.5C4353.49 254.167 4364.49 222.5 4386.49 199.5C4408.49 176.5 4435.99 165 4468.99 165C4501.99 165 4528.16 175 4547.49 195C4566.83 215 4576.49 244.167 4576.49 282.5C4576.49 291.833 4575.33 303.833 4572.99 318.5H4413.99C4418.33 336.833 4427.33 350.833 4440.99 360.5C4454.99 370.167 4472.33 375 4492.99 375C4519.66 375 4542.16 368.333 4560.49 355V407ZM4470.49 212C4456.16 212 4443.66 217.333 4432.99 228C4422.66 238.333 4415.99 253.5 4412.99 273.5H4519.49V266C4518.83 249.667 4514.33 236.667 4505.99 227C4497.99 217 4486.16 212 4470.49 212ZM4813.14 421H4620.14V376.5L4737.64 215.5H4624.64V167.5H4806.64V209.5L4688.64 372.5H4813.14V421Z" fill="#204D66"/>
<rect width="512" height="512" rx="50" fill="white"/>
<rect width="512" height="512" rx="50" fill="#204D66"/>
<path d="M217.599 467H102.225V273.562H216.451V303.123H138.674V355.644H207.841V384.918H138.674V437.439H217.599V467ZM286.571 467H250.409L265.907 273.562H307.235L333.639 343.877C338.231 355.74 342.536 367.602 346.554 379.465C350.572 391.136 353.442 399.842 355.164 405.582L357.747 414.479C363.678 394.58 371.905 371.046 382.429 343.877L409.407 273.562H450.735L469.677 467H433.515L426.627 391.519L421.461 323.787C414.573 343.494 406.345 366.072 396.779 391.519L369.801 464.13H345.119L318.715 391.519L296.042 324.648C296.042 334.023 294.798 356.314 292.311 391.519L286.571 467Z" fill="white"/>
</g>
<g clip-path="url(#clip1_121_255)">
<path d="M0 50C0 22.3858 22.3858 0 50 0H4996C5023.61 0 5046 22.3858 5046 50V462C5046 489.614 5023.61 512 4996 512H50.0001C22.3858 512 0 489.614 0 462V50Z" fill="white"/>
<path d="M966 421H765V84H964V135.5H828.5V227H949V278H828.5V369.5H966V421ZM1386.16 421H1325.66V265.5C1325.66 231.5 1312.66 214.5 1286.66 214.5C1273.66 214.5 1261.99 220.167 1251.66 231.5C1241.66 242.833 1236.66 260.667 1236.66 285V421H1176.16V265.5C1176.16 231.5 1163.16 214.5 1137.16 214.5C1124.16 214.5 1112.49 220.167 1102.16 231.5C1091.83 242.833 1086.66 260.667 1086.66 285V421H1026.66V167.5H1086.66V207.5C1100.99 178.833 1124.83 164.5 1158.16 164.5C1195.16 164.5 1219.16 180.5 1230.16 212.5C1236.83 197.167 1246.83 185.333 1260.16 177C1273.49 168.667 1288.66 164.5 1305.66 164.5C1331.33 164.5 1351.16 172.333 1365.16 188C1379.16 203.333 1386.16 225.333 1386.16 254V421ZM1807.55 421H1747.05V265.5C1747.05 231.5 1734.05 214.5 1708.05 214.5C1695.05 214.5 1683.38 220.167 1673.05 231.5C1663.05 242.833 1658.05 260.667 1658.05 285V421H1597.55V265.5C1597.55 231.5 1584.55 214.5 1558.55 214.5C1545.55 214.5 1533.88 220.167 1523.55 231.5C1513.21 242.833 1508.05 260.667 1508.05 285V421H1448.05V167.5H1508.05V207.5C1522.38 178.833 1546.21 164.5 1579.55 164.5C1616.55 164.5 1640.55 180.5 1651.55 212.5C1658.21 197.167 1668.21 185.333 1681.55 177C1694.88 168.667 1710.05 164.5 1727.05 164.5C1752.71 164.5 1772.55 172.333 1786.55 188C1800.55 203.333 1807.55 225.333 1807.55 254V421ZM1956.43 378.5C1969.77 378.5 1980.1 374.667 1987.43 367C1995.1 359 1998.93 348.667 1998.93 336V312H1967.93C1952.27 312 1940.27 315.333 1931.93 322C1923.6 328.333 1919.43 336.5 1919.43 346.5C1919.43 367.833 1931.77 378.5 1956.43 378.5ZM2001.43 390.5C1989.77 412.167 1967.77 423 1935.43 423C1911.43 423 1892.27 416 1877.93 402C1863.93 388 1856.93 370.333 1856.93 349C1856.93 325 1865.93 306.167 1883.93 292.5C1901.93 278.833 1927.93 272 1961.93 272H1998.93V256.5C1998.93 242.5 1995.27 231.833 1987.93 224.5C1980.6 217.167 1968.1 213.5 1950.43 213.5C1923.43 213.5 1898.6 221 1875.93 236V180.5C1894.93 168.833 1922.27 163 1957.93 163C2026.6 163 2060.93 195 2060.93 259V421H2001.43V390.5ZM2342.85 421H2282.85V265C2282.85 248.333 2278.85 235.833 2270.85 227.5C2262.85 218.833 2252.02 214.5 2238.35 214.5C2222.68 214.5 2209.52 220.667 2198.85 233C2188.18 245 2182.85 262.333 2182.85 285V421H2122.85V167.5H2182.85V211C2197.18 180 2223.18 164.5 2260.85 164.5C2286.18 164.5 2306.18 172.167 2320.85 187.5C2335.52 202.833 2342.85 224.5 2342.85 252.5V421ZM2623.07 421H2562.57V379.5C2549.23 408.833 2523.23 423.5 2484.57 423.5C2458.9 423.5 2438.9 416.167 2424.57 401.5C2410.23 386.833 2403.07 366 2403.07 339V167.5H2463.07V325C2463.07 341 2466.9 353.167 2474.57 361.5C2482.57 369.833 2493.4 374 2507.07 374C2524.4 374 2537.9 368.167 2547.57 356.5C2557.57 344.833 2562.57 327.167 2562.57 303.5V167.5H2623.07V421ZM2881.78 407C2864.11 418 2838.61 423.5 2805.28 423.5C2764.95 423.5 2733.11 411.5 2709.78 387.5C2686.45 363.5 2674.78 332.5 2674.78 294.5C2674.78 254.167 2685.78 222.5 2707.78 199.5C2729.78 176.5 2757.28 165 2790.28 165C2823.28 165 2849.45 175 2868.78 195C2888.11 215 2897.78 244.167 2897.78 282.5C2897.78 291.833 2896.61 303.833 2894.28 318.5H2735.28C2739.61 336.833 2748.61 350.833 2762.28 360.5C2776.28 370.167 2793.61 375 2814.28 375C2840.95 375 2863.45 368.333 2881.78 355V407ZM2791.78 212C2777.45 212 2764.95 217.333 2754.28 228C2743.95 238.333 2737.28 253.5 2734.28 273.5H2840.78V266C2840.11 249.667 2835.61 236.667 2827.28 227C2819.28 217 2807.45 212 2791.78 212ZM3015.43 421H2955.43V67.5H3015.43V421ZM3142.31 421H3079.31L3106.31 84H3178.31L3224.31 206.5C3232.31 227.167 3239.81 247.833 3246.81 268.5C3253.81 288.833 3258.81 304 3261.81 314L3266.31 329.5C3276.65 294.833 3290.98 253.833 3309.31 206.5L3356.31 84H3428.31L3461.31 421H3398.31L3386.31 289.5L3377.31 171.5C3365.31 205.833 3350.98 245.167 3334.31 289.5L3287.31 416H3244.31L3198.31 289.5L3158.81 173C3158.81 189.333 3156.65 228.167 3152.31 289.5L3142.31 421ZM3716.25 407C3698.59 418 3673.09 423.5 3639.75 423.5C3599.42 423.5 3567.59 411.5 3544.25 387.5C3520.92 363.5 3509.25 332.5 3509.25 294.5C3509.25 254.167 3520.25 222.5 3542.25 199.5C3564.25 176.5 3591.75 165 3624.75 165C3657.75 165 3683.92 175 3703.25 195C3722.59 215 3732.25 244.167 3732.25 282.5C3732.25 291.833 3731.09 303.833 3728.75 318.5H3569.75C3574.09 336.833 3583.09 350.833 3596.75 360.5C3610.75 370.167 3628.09 375 3648.75 375C3675.42 375 3697.92 368.333 3716.25 355V407ZM3626.25 212C3611.92 212 3599.42 217.333 3588.75 228C3578.42 238.333 3571.75 253.5 3568.75 273.5H3675.25V266C3674.59 249.667 3670.09 236.667 3661.75 227C3653.75 217 3641.92 212 3626.25 212ZM4007.4 421H3947.4V265C3947.4 248.333 3943.4 235.833 3935.4 227.5C3927.4 218.833 3916.57 214.5 3902.9 214.5C3887.24 214.5 3874.07 220.667 3863.4 233C3852.74 245 3847.4 262.333 3847.4 285V421H3787.4V167.5H3847.4V211C3861.74 180 3887.74 164.5 3925.4 164.5C3950.74 164.5 3970.74 172.167 3985.4 187.5C4000.07 202.833 4007.4 224.5 4007.4 252.5V421ZM4118.12 295.5C4118.12 318.5 4123.95 337.167 4135.62 351.5C4147.28 365.833 4161.78 373 4179.12 373C4197.12 373 4212.12 366.167 4224.12 352.5C4236.12 338.5 4242.12 318.333 4242.12 292C4242.12 266.333 4235.78 247.167 4223.12 234.5C4210.45 221.5 4195.95 215 4179.62 215C4162.28 215 4147.62 222.167 4135.62 236.5C4123.95 250.5 4118.12 270.167 4118.12 295.5ZM4302.12 421H4242.12V381.5C4224.78 410.167 4199.12 424.5 4165.12 424.5C4131.78 424.5 4105.28 411.833 4085.62 386.5C4066.28 361.167 4056.62 330.5 4056.62 294.5C4056.62 254.5 4066.78 222.833 4087.12 199.5C4107.78 175.833 4134.12 164 4166.12 164C4199.12 164 4224.45 178.167 4242.12 206.5V67.5H4302.12V421ZM4560.49 407C4542.83 418 4517.33 423.5 4483.99 423.5C4443.66 423.5 4411.83 411.5 4388.49 387.5C4365.16 363.5 4353.49 332.5 4353.49 294.5C4353.49 254.167 4364.49 222.5 4386.49 199.5C4408.49 176.5 4435.99 165 4468.99 165C4501.99 165 4528.16 175 4547.49 195C4566.83 215 4576.49 244.167 4576.49 282.5C4576.49 291.833 4575.33 303.833 4572.99 318.5H4413.99C4418.33 336.833 4427.33 350.833 4440.99 360.5C4454.99 370.167 4472.33 375 4492.99 375C4519.66 375 4542.16 368.333 4560.49 355V407ZM4470.49 212C4456.16 212 4443.66 217.333 4432.99 228C4422.66 238.333 4415.99 253.5 4412.99 273.5H4519.49V266C4518.83 249.667 4514.33 236.667 4505.99 227C4497.99 217 4486.16 212 4470.49 212ZM4813.14 421H4620.14V376.5L4737.64 215.5H4624.64V167.5H4806.64V209.5L4688.64 372.5H4813.14V421Z" fill="#204D66"/>
<rect width="512" height="512" rx="50" fill="white"/>
<rect width="512" height="512" rx="50" fill="#204D66"/>
<path d="M228.833 463H118.283V277.65H227.733V305.975H153.208V356.3H219.483V384.35H153.208V434.675H228.833V463ZM294.921 463H260.271L275.121 277.65H314.721L340.021 345.025C344.421 356.392 348.546 367.758 352.396 379.125C356.246 390.308 358.996 398.65 360.646 404.15L363.121 412.675C368.805 393.608 376.688 371.058 386.771 345.025L412.621 277.65H452.221L470.371 463H435.721L429.121 390.675L424.171 325.775C417.571 344.658 409.688 366.292 400.521 390.675L374.671 460.25H351.021L325.721 390.675L303.996 326.6C303.996 335.583 302.805 356.942 300.421 390.675L294.921 463Z" fill="white"/>
</g>
<defs>
<clipPath id="clip0_121_255">
<rect width="4828" height="512" rx="50" fill="white"/>
</clipPath>
<clipPath id="clip1_121_255">
<path d="M0 50C0 22.3858 22.3858 0 50 0H4996C5023.61 0 5046 22.3858 5046 50V462C5046 489.614 5023.61 512 4996 512H50.0001C22.3858 512 0 489.614 0 462V50Z" fill="white"/>
</clipPath>
</defs>
</svg>
